<mxfile host="app.diagrams.net" modified="2021-04-19T09:52:04.430Z" agent="5.0 (X11; Linux x86_64) AppleWebKit/537.36 (KHTML, like Gecko) Chrome/89.0.4389.72 Safari/537.36" etag="SsxsjKOvrd-0hGuTXFrA" version="14.6.0" type="github">
  <diagram id="ki8lHQgk8cuv7bDthN3Q" name="Page-1">
    <mxGraphModel dx="576" dy="490" grid="1" gridSize="10" guides="1" tooltips="1" connect="1" arrows="1" fold="1" page="1" pageScale="1" pageWidth="850" pageHeight="1100" math="1" shadow="0">
      <root>
        <mxCell id="0" />
        <mxCell id="1" parent="0" />
        <mxCell id="v1sNk8_5cL06QLZCOB6b-1" value="&lt;b&gt;Obtain `| 0 \rangle`&lt;/b&gt;" style="rounded=0;whiteSpace=wrap;html=1;fillColor=#dae8fc;strokeColor=#6c8ebf;" vertex="1" parent="1">
          <mxGeometry x="40" y="130" width="100" height="40" as="geometry" />
        </mxCell>
        <mxCell id="v1sNk8_5cL06QLZCOB6b-2" value="&lt;b&gt;Transform `(\mu\nu|\kappa\lambda)`&lt;/b&gt;" style="rounded=0;whiteSpace=wrap;html=1;fillColor=#dae8fc;strokeColor=#6c8ebf;" vertex="1" parent="1">
          <mxGeometry x="179" y="130" width="100" height="40" as="geometry" />
        </mxCell>
        <mxCell id="v1sNk8_5cL06QLZCOB6b-3" value="&lt;b&gt;Assemble `\varepsilon_{ij}^{ab}`&lt;/b&gt;" style="rounded=0;whiteSpace=wrap;html=1;fillColor=#dae8fc;strokeColor=#6c8ebf;" vertex="1" parent="1">
          <mxGeometry x="320" y="130" width="100" height="40" as="geometry" />
        </mxCell>
        <mxCell id="v1sNk8_5cL06QLZCOB6b-5" value="&lt;b&gt;Compute `E_{\text{MP2}}`&lt;/b&gt;" style="rounded=0;whiteSpace=wrap;html=1;fillColor=#dae8fc;strokeColor=#6c8ebf;" vertex="1" parent="1">
          <mxGeometry x="456" y="130" width="100" height="40" as="geometry" />
        </mxCell>
        <mxCell id="v1sNk8_5cL06QLZCOB6b-6" value="" style="endArrow=openThin;html=1;entryX=0;entryY=0.5;entryDx=0;entryDy=0;endFill=0;strokeWidth=2;" edge="1" parent="1" target="v1sNk8_5cL06QLZCOB6b-2">
          <mxGeometry width="50" height="50" relative="1" as="geometry">
            <mxPoint x="140" y="150" as="sourcePoint" />
            <mxPoint x="190" y="100" as="targetPoint" />
          </mxGeometry>
        </mxCell>
        <mxCell id="v1sNk8_5cL06QLZCOB6b-7" value="" style="endArrow=openThin;html=1;entryX=0;entryY=0.5;entryDx=0;entryDy=0;fillColor=#ffe6cc;strokeWidth=2;endFill=0;" edge="1" parent="1" target="v1sNk8_5cL06QLZCOB6b-3">
          <mxGeometry width="50" height="50" relative="1" as="geometry">
            <mxPoint x="279" y="149.5" as="sourcePoint" />
            <mxPoint x="318" y="149.5" as="targetPoint" />
          </mxGeometry>
        </mxCell>
        <mxCell id="v1sNk8_5cL06QLZCOB6b-8" value="" style="endArrow=openThin;html=1;fillColor=#ffe6cc;strokeWidth=2;endFill=0;entryX=0;entryY=0.5;entryDx=0;entryDy=0;" edge="1" parent="1" target="v1sNk8_5cL06QLZCOB6b-5">
          <mxGeometry width="50" height="50" relative="1" as="geometry">
            <mxPoint x="420" y="149.71" as="sourcePoint" />
            <mxPoint x="450" y="150" as="targetPoint" />
          </mxGeometry>
        </mxCell>
      </root>
    </mxGraphModel>
  </diagram>
</mxfile>
